<?xml version="1.0" encoding="utf-8"?>
<!-- Generator: Adobe Illustrator 23.0.1, SVG Export Plug-In . SVG Version: 6.00 Build 0)  -->
<svg version="1.1" id="Layer_1" xmlns="http://www.w3.org/2000/svg" xmlns:xlink="http://www.w3.org/1999/xlink" x="0px" y="0px"
	 viewBox="0 0 236.56 236.92" style="enable-background:new 0 0 236.56 236.92;" xml:space="preserve">
<style type="text/css">
	.st0{fill:#FB8520;}
	.st1{display:none;}
	.st2{display:inline;fill:#FFFFFF;}
	.st3{fill:#FFFFFF;}
</style>
<polygon class="st0" points="193.69,210.51 175.48,209.43 168.46,226.27 151.08,220.69 140.1,235.27 124.65,225.54 110.39,236.92 
	97.85,223.66 81.2,231.13 72.36,215.17 54.37,218.27 49.78,200.61 31.58,199.14 31.52,180.89 14.27,174.95 18.75,157.25 3.52,147.2 
	12.26,131.18 0,117.66 12.45,104.31 3.94,88.17 19.32,78.34 15.09,60.58 32.43,54.89 32.75,36.64 50.97,35.43 55.82,17.84 
	73.75,21.2 82.83,5.36 99.37,13.08 112.09,0 126.19,11.59 141.77,2.08 152.55,16.81 170,11.48 176.78,28.43 195.01,27.6 
	197.36,45.7 215.22,49.44 212.99,67.55 229.37,75.61 222.7,92.6 236.56,104.48 225.88,119.29 236.35,134.24 222.32,145.92 
	228.74,163 212.25,170.83 214.22,188.97 196.3,192.45 "/>
<g class="st1">
	<path class="st2" d="M70.43,57.47c0.22-0.2,0.47-0.3,0.75-0.3c0.32,0,0.6,0.11,0.84,0.33c0.24,0.22,0.36,0.51,0.36,0.87
		c0,2.36,0.58,4.11,1.74,5.25c1.16,1.14,2.92,1.71,5.28,1.71c1.64,0,3.43-0.43,5.37-1.29c1.94-0.86,3.69-1.8,5.25-2.82
		s3.52-2.37,5.88-4.05c0.96-0.76,1.96-1.48,3-2.16c0.2-0.12,0.42-0.18,0.66-0.18c0.44,0,0.76,0.16,0.96,0.48
		c0.24,0.36,0.3,0.72,0.18,1.08l-3.48,10.62c2.56-3.28,4.87-5.74,6.93-7.38c2.06-1.64,4.31-2.46,6.75-2.46
		c2.6,0,4.47,0.65,5.61,1.95c1.14,1.3,1.71,3.17,1.71,5.61c0.04,1.84-0.25,3.99-0.87,6.45c-0.62,2.46-1.77,6.15-3.45,11.07
		c0.12-0.36-0.72,2.04-2.52,7.2c-1.72,4.88-2.98,8.59-3.78,11.13c-0.8,2.54-1.22,4.25-1.26,5.13c0,1.84,0.33,3.19,0.99,4.05
		c0.66,0.86,1.69,1.33,3.09,1.41c0.32,0,0.6,0.11,0.84,0.33c0.24,0.22,0.36,0.49,0.36,0.81s-0.12,0.6-0.36,0.84
		c-0.24,0.24-0.52,0.36-0.84,0.36c-2.12,0-3.73-0.68-4.83-2.04c-1.1-1.36-1.65-3.28-1.65-5.76c0.04-1.04,0.43-2.76,1.17-5.16
		c0.74-2.4,1.87-5.76,3.39-10.08l3.12-9c1.6-4.76,2.71-8.34,3.33-10.74c0.62-2.4,0.93-4.4,0.93-6c-0.04-1.64-0.44-2.91-1.2-3.81
		c-0.76-0.9-2.02-1.35-3.78-1.35c-1.8,0-3.62,0.72-5.46,2.16c-1.84,1.44-3.58,3.2-5.22,5.28c-1.64,2.08-3.48,4.64-5.52,7.68
		c-0.48,1.4-1.36,4.14-2.64,8.22c-1.84,5.68-3.19,9.67-4.05,11.97c-0.86,2.3-1.78,3.98-2.76,5.04c-0.98,1.06-2.25,1.59-3.81,1.59
		c-1.04,0-1.81-0.32-2.31-0.96c-0.5-0.64-0.75-1.54-0.75-2.7c0-1.64,0.68-3.61,2.04-5.91c1.36-2.3,3.04-4.87,5.04-7.71l0.9-1.26
		l6.18-9.36l4.74-14.52c-3.76,2.68-7.03,4.78-9.81,6.3c-2.78,1.52-5.47,2.28-8.07,2.28c-2.72,0-4.97-0.77-6.75-2.31
		c-1.78-1.54-2.67-3.57-2.67-6.09c0-0.4,0.02-0.72,0.06-0.96C70.08,57.95,70.21,57.67,70.43,57.47z M88.28,84.41
		c-4.96,6.68-7.48,11.18-7.56,13.5c0,0.8,0.26,1.2,0.78,1.2c0.92,0,1.72-0.42,2.4-1.26c0.68-0.84,1.41-2.34,2.19-4.5
		c0.78-2.16,1.95-5.74,3.51-10.74C89.52,82.77,89.08,83.37,88.28,84.41z"/>
	<path class="st2" d="M138.5,88.43c0,0.08-0.04,0.24-0.12,0.48c-1.96,4.32-4.11,7.5-6.45,9.54c-2.34,2.04-5.03,3.06-8.07,3.06
		c-2.48,0-4.43-0.75-5.85-2.25c-1.42-1.5-2.09-3.49-2.01-5.97c0.12-2.64,0.84-5.55,2.16-8.73c1.32-3.18,3.01-5.88,5.07-8.1
		c2.06-2.22,4.21-3.33,6.45-3.33c1.52,0,2.75,0.39,3.69,1.17c0.94,0.78,1.41,1.87,1.41,3.27c0,2.88-1.57,5.32-4.71,7.32
		c-3.14,2-6.77,3.5-10.89,4.5c-0.44,1.52-0.66,2.94-0.66,4.26c0,1.68,0.49,2.99,1.47,3.93c0.98,0.94,2.37,1.41,4.17,1.41
		c2.4,0,4.57-0.9,6.51-2.7c1.94-1.8,3.73-4.6,5.37-8.4c0.16-0.32,0.4-0.54,0.72-0.66c0.32-0.12,0.64-0.12,0.96,0
		C138.24,87.47,138.5,87.87,138.5,88.43z M128.66,82.73c2.4-1.48,3.6-3.2,3.6-5.16c0-0.72-0.23-1.22-0.69-1.5
		c-0.46-0.28-1.09-0.42-1.89-0.42c-1.84,0-3.59,1.08-5.25,3.24c-1.66,2.16-3.09,4.7-4.29,7.62
		C123.42,85.47,126.26,84.21,128.66,82.73z"/>
	<path class="st2" d="M169.94,88.85c-0.92,2.52-2.2,4.62-3.84,6.3c-1.64,1.68-3.46,2.52-5.46,2.52c-1.72,0-3.12-0.54-4.2-1.62
		c-1.28,1.8-2.48,3.16-3.6,4.08c-1.12,0.92-2.34,1.38-3.66,1.38c-2.48,0-3.92-1.42-4.32-4.26c-2,2.84-4.2,4.26-6.6,4.26
		c-1.4,0-2.47-0.46-3.21-1.38c-0.74-0.92-1.11-2.14-1.11-3.66c0-1.44,0.52-3.79,1.56-7.05c1.04-3.26,2.92-8.47,5.64-15.63
		c0.08-0.24,0.23-0.43,0.45-0.57c0.22-0.14,0.45-0.21,0.69-0.21c0.48,0,0.84,0.18,1.08,0.54c0.24,0.36,0.28,0.74,0.12,1.14
		c-3.08,8.48-5.02,13.95-5.82,16.41c-0.8,2.46-1.2,4.25-1.2,5.37c0,0.88,0.14,1.52,0.42,1.92c0.28,0.4,0.74,0.6,1.38,0.6
		c1.44,0,2.84-0.86,4.2-2.58c1.36-1.72,2.84-4.58,4.44-8.58c0.68-1.76,2.38-6.44,5.1-14.04c0.08-0.24,0.23-0.43,0.45-0.57
		c0.22-0.14,0.45-0.21,0.69-0.21c0.48,0,0.85,0.18,1.11,0.54c0.26,0.36,0.31,0.74,0.15,1.14c-2.36,6.2-4.12,11.04-5.28,14.52
		c-1.16,3.48-1.74,5.9-1.74,7.26c0,0.92,0.15,1.57,0.45,1.95c0.3,0.38,0.75,0.57,1.35,0.57c0.92,0,1.73-0.35,2.43-1.05
		c0.7-0.7,1.79-2.09,3.27-4.17c-0.32-0.96-0.48-1.9-0.48-2.82c0-0.96,0.14-1.92,0.42-2.88c0.2-0.64,0.6-0.96,1.2-0.96
		c0.44,0,0.79,0.17,1.05,0.51c0.26,0.34,0.33,0.71,0.21,1.11c-0.12,0.28-0.22,0.76-0.3,1.44c1.2-2.32,2.59-5.02,4.17-8.1
		c1.58-3.08,2.97-5.88,4.17-8.4c0.28-0.48,0.68-0.72,1.2-0.72c0.32,0,0.6,0.13,0.84,0.39c0.24,0.26,0.36,0.55,0.36,0.87
		c0,0.16-0.04,0.36-0.12,0.6c-1.56,3.16-3.34,6.71-5.34,10.65c-2,3.94-3.48,6.75-4.44,8.43c0.28,0.4,0.68,0.71,1.2,0.93
		c0.52,0.22,1.06,0.33,1.62,0.33c1.48,0,2.75-0.6,3.81-1.8c1.06-1.2,2.11-3.02,3.15-5.46c0.28-0.52,0.66-0.78,1.14-0.78
		c0.36,0,0.67,0.12,0.93,0.36c0.26,0.24,0.39,0.54,0.39,0.9C170.06,88.45,170.02,88.61,169.94,88.85z"/>
	<path class="st2" d="M48.95,130.46c-0.72,2.18-1.54,4.85-2.46,8.01l-0.48,1.56c-1.52,5.2-2.93,9.48-4.23,12.84
		c-1.3,3.36-3.04,6.25-5.22,8.67c-2.18,2.42-4.83,3.63-7.95,3.63c-2.48,0-4.54-0.77-6.18-2.31c-1.64-1.54-2.46-3.51-2.46-5.91
		c0-1.72,0.4-3.34,1.2-4.86c0.8-1.52,1.87-2.73,3.21-3.63c1.34-0.9,2.79-1.35,4.35-1.35c1.68,0,2.52,0.48,2.52,1.44
		c0,0.4-0.17,0.73-0.51,0.99c-0.34,0.26-0.71,0.33-1.11,0.21c-0.2-0.08-0.54-0.12-1.02-0.12c-1.08,0-2.09,0.35-3.03,1.05
		c-0.94,0.7-1.69,1.61-2.25,2.73c-0.56,1.12-0.84,2.26-0.84,3.42c0,1.76,0.59,3.17,1.77,4.23c1.18,1.06,2.65,1.59,4.41,1.59
		c2.52,0,4.68-1.09,6.48-3.27c1.8-2.18,3.31-4.9,4.53-8.16c1.22-3.26,2.67-7.73,4.35-13.41c1.08-3.64,1.97-6.5,2.67-8.58
		c0.7-2.08,1.43-3.86,2.19-5.34c0.56-1.2,1.41-2.26,2.55-3.18c1.14-0.92,2.17-1.38,3.09-1.38c0.32,0,0.61,0.1,0.87,0.3
		c0.26,0.2,0.41,0.44,0.45,0.72v0.24c0,0.64-0.36,1.06-1.08,1.26c-0.72,0.08-1.4,0.44-2.04,1.08c-0.64,0.64-1.18,1.34-1.62,2.1
		C50.39,126.47,49.67,128.28,48.95,130.46z M64.85,136.07c-1.2,2.52-2.88,4.55-5.04,6.09c-2.16,1.54-4.6,2.31-7.32,2.31
		c-1.76,0-3.62-0.38-5.58-1.14c-0.56-0.2-0.84-0.6-0.84-1.2c0-0.36,0.12-0.65,0.36-0.87c0.24-0.22,0.52-0.33,0.84-0.33
		c0.2,0,0.36,0.02,0.48,0.06c1.8,0.64,3.44,0.96,4.92,0.96c2.2,0,4.17-0.68,5.91-2.04c1.74-1.36,3.1-3.11,4.08-5.25
		c0.98-2.14,1.47-4.35,1.47-6.63c0-3.16-1.1-5.59-3.3-7.29c-2.2-1.7-5.12-2.55-8.76-2.55c-3.32,0-6.2,0.89-8.64,2.67
		c-2.44,1.78-4.3,4.19-5.58,7.23c-1.28,3.04-1.92,6.42-1.92,10.14c0,0.32-0.12,0.61-0.36,0.87c-0.24,0.26-0.54,0.39-0.9,0.39
		c-0.36,0-0.66-0.13-0.9-0.39c-0.24-0.26-0.36-0.55-0.36-0.87c0-4.32,0.76-8.19,2.28-11.61c1.52-3.42,3.73-6.11,6.63-8.07
		c2.9-1.96,6.35-2.94,10.35-2.94c2.68,0,5.08,0.52,7.2,1.56c2.12,1.04,3.78,2.5,4.98,4.38c1.2,1.88,1.8,4.04,1.8,6.48
		C66.65,130.87,66.05,133.55,64.85,136.07z"/>
	<path class="st2" d="M92.15,148.37c0,0.12-0.04,0.3-0.12,0.54c-1.96,4.52-3.78,7.75-5.46,9.69c-1.68,1.94-3.52,2.91-5.52,2.91
		h-0.06c-1.36,0-2.41-0.46-3.15-1.38c-0.74-0.92-1.11-2.14-1.11-3.66c0-1.16,0.2-2.46,0.6-3.9c0.24-0.92,0.84-2.84,1.8-5.76
		c0.96-2.92,1.58-4.74,1.86-5.46c-1.84-0.6-3.23-1.07-4.17-1.41c-0.94-0.34-1.73-0.67-2.37-0.99c-0.12,0.4-0.92,2.18-2.4,5.34
		l-3.06,6.72c-0.24,0.48-0.6,0.72-1.08,0.72c-0.16,0-0.36-0.04-0.6-0.12c-0.48-0.28-0.72-0.66-0.72-1.14c0-0.12,0.04-0.3,0.12-0.54
		l4.8-10.44l0.72-1.8c-2.04-1.44-3.06-3.12-3.06-5.04c0-1.2,0.36-2.15,1.08-2.85c0.72-0.7,1.58-1.05,2.58-1.05
		c1.08,0,1.93,0.36,2.55,1.08c0.62,0.72,0.93,1.68,0.93,2.88c0,0.36-0.05,0.75-0.15,1.17c-0.1,0.42-0.23,0.87-0.39,1.35
		c-0.16,0.48-0.3,0.92-0.42,1.32c0.92,0.48,2.74,1.18,5.46,2.1c0.92,0.28,1.68,0.52,2.28,0.72c0.52,0.2,0.78,0.62,0.78,1.26
		c0,0.2-0.02,0.36-0.06,0.48c-0.4,1.04-1.13,3.13-2.19,6.27c-1.06,3.14-1.67,5.07-1.83,5.79c-0.28,1-0.46,2.1-0.54,3.3
		c0,1.68,0.6,2.52,1.8,2.52c1.44,0,2.8-0.85,4.08-2.55c1.28-1.7,2.8-4.55,4.56-8.55c0.28-0.52,0.66-0.78,1.14-0.78
		c0.12,0,0.3,0.04,0.54,0.12C91.89,147.47,92.15,147.85,92.15,148.37z M73.52,131.6c-0.18-0.22-0.41-0.33-0.69-0.33
		c-0.76,0-1.14,0.38-1.14,1.14c0,0.48,0.13,0.97,0.39,1.47c0.26,0.5,0.61,0.93,1.05,1.29c0.44-1.24,0.66-2.08,0.66-2.52
		C73.79,132.17,73.7,131.82,73.52,131.6z"/>
	<path class="st2" d="M111.32,155.54c-1.46,1.42-3.09,2.13-4.89,2.13c-1.72,0-3.24-0.54-4.56-1.62c-1.2,1.6-2.52,2.91-3.96,3.93
		c-1.44,1.02-2.84,1.53-4.2,1.53c-3.48,0-5.22-2.02-5.22-6.06c0-5.12,1.7-10.46,5.1-16.02c1.24-2.08,2.58-3.65,4.02-4.71
		c1.44-1.06,2.92-1.59,4.44-1.59c1.92,0.04,3.4,0.65,4.44,1.83c1.04,1.18,1.56,2.71,1.56,4.59c0,1.88-0.43,4.15-1.29,6.81
		c-0.86,2.66-1.99,5.17-3.39,7.53c0.68,0.84,1.7,1.26,3.06,1.26c1.24,0,2.41-0.59,3.51-1.77c1.1-1.18,2.17-3.01,3.21-5.49
		c0.08-0.24,0.23-0.43,0.45-0.57c0.22-0.14,0.45-0.21,0.69-0.21c0.36,0,0.67,0.13,0.93,0.39c0.26,0.26,0.39,0.55,0.39,0.87
		c0,0.08-0.04,0.24-0.12,0.48C114.17,151.89,112.78,154.12,111.32,155.54z M102.59,147.62c0.24,0.34,0.3,0.71,0.18,1.11
		c-0.08,0.24-0.14,0.5-0.18,0.78c-0.04,0.28-0.06,0.48-0.06,0.6c0.92-1.84,1.65-3.72,2.19-5.64s0.81-3.58,0.81-4.98
		c0-1.24-0.33-2.19-0.99-2.85c-0.66-0.66-1.51-0.99-2.55-0.99c-1.08,0-2.15,0.46-3.21,1.38c-1.06,0.92-2.05,2.16-2.97,3.72
		c-3.16,5.24-4.74,10.1-4.74,14.58c0,2.44,0.88,3.66,2.64,3.66c1.04,0,2.15-0.49,3.33-1.47c1.18-0.98,2.31-2.23,3.39-3.75
		c-0.32-0.84-0.48-1.8-0.48-2.88c0-0.92,0.12-1.86,0.36-2.82c0.04-0.28,0.18-0.51,0.42-0.69c0.24-0.18,0.52-0.27,0.84-0.27
		C102.01,147.11,102.35,147.28,102.59,147.62z"/>
	<path class="st2" d="M141.41,148.37c0,0.12-0.04,0.3-0.12,0.54c-1.96,4.2-3.87,7.35-5.73,9.45c-1.86,2.1-4.07,3.15-6.63,3.15
		c-1.4,0-2.49-0.46-3.27-1.38c-0.78-0.92-1.17-2.22-1.17-3.9c-2.48,3.52-5.02,5.28-7.62,5.28c-1.6,0-2.82-0.6-3.66-1.8
		s-1.26-2.76-1.26-4.68c0-2.72,0.62-5.82,1.86-9.3c1.24-3.48,2.88-6.45,4.92-8.91s4.2-3.69,6.48-3.69c2.56,0,4.36,1.02,5.4,3.06
		l1.14-3.12l3.18-9.18c0.08-0.24,0.23-0.43,0.45-0.57c0.22-0.14,0.45-0.21,0.69-0.21c0.48,0,0.83,0.19,1.05,0.57
		c0.22,0.38,0.27,0.75,0.15,1.11l-1.8,5.16c-4.24,12.2-6.4,18.42-6.48,18.66c-1.32,4.04-1.98,6.66-1.98,7.86
		c0,1.68,0.64,2.52,1.92,2.52c1.96,0,3.71-0.95,5.25-2.85c1.54-1.9,3.13-4.67,4.77-8.31c0.28-0.48,0.68-0.72,1.2-0.72l0.48,0.12
		C141.15,147.47,141.41,147.85,141.41,148.37z M121.01,156.68c1.32-1.54,2.46-3.33,3.42-5.37s2.02-4.52,3.18-7.44
		c0.32-0.68,0.56-1.3,0.72-1.86l0.66-1.56c0.04-0.12,0.06-0.26,0.06-0.42c-0.08-1.4-0.45-2.48-1.11-3.24s-1.57-1.14-2.73-1.14
		c-1.72,0.04-3.4,1.18-5.04,3.42c-1.64,2.24-2.99,4.87-4.05,7.89c-1.06,3.02-1.61,5.57-1.65,7.65c0,1.4,0.18,2.48,0.54,3.24
		c0.36,0.76,0.96,1.14,1.8,1.14C118.29,158.99,119.69,158.22,121.01,156.68z"/>
	<path class="st2" d="M165.47,148.37c0,0.12-0.04,0.3-0.12,0.54c-1.96,4.52-3.77,7.75-5.43,9.69c-1.66,1.94-3.49,2.91-5.49,2.91
		c-2.48,0-3.92-1.42-4.32-4.26c-0.88,1.28-1.97,2.31-3.27,3.09c-1.3,0.78-2.61,1.17-3.93,1.17h-0.06c-1.88,0-3.31-0.53-4.29-1.59
		c-0.98-1.06-1.47-2.61-1.47-4.65c0-1.32,0.37-3.07,1.11-5.25c0.74-2.18,2.43-6.73,5.07-13.65l1.02-2.58
		c0.08-0.24,0.23-0.43,0.45-0.57c0.22-0.14,0.45-0.21,0.69-0.21c0.48,0,0.84,0.18,1.08,0.54c0.24,0.36,0.28,0.74,0.12,1.14
		l-2.76,7.32c-2,5.36-3.21,8.67-3.63,9.93c-0.42,1.26-0.63,2.37-0.63,3.33c0,2.48,1.1,3.72,3.3,3.72c1.24,0,2.46-0.52,3.66-1.56
		c1.2-1.04,2.28-2.56,3.24-4.56c0.8-1.6,1.61-3.47,2.43-5.61c0.82-2.14,2.05-5.43,3.69-9.87l1.32-3.6c0.08-0.24,0.23-0.43,0.45-0.57
		c0.22-0.14,0.45-0.21,0.69-0.21c0.48,0,0.85,0.18,1.11,0.54c0.26,0.36,0.31,0.74,0.15,1.14c-0.76,2.04-1.46,3.96-2.1,5.76
		l-1.26,3.36c-1.12,3.04-2.01,5.7-2.67,7.98c-0.66,2.28-0.99,3.84-0.99,4.68c0,0.88,0.14,1.52,0.42,1.92c0.28,0.4,0.74,0.6,1.38,0.6
		c1.4,0,2.75-0.86,4.05-2.58c1.3-1.72,2.83-4.56,4.59-8.52c0.08-0.24,0.23-0.43,0.45-0.57c0.22-0.14,0.45-0.21,0.69-0.21
		c0.12,0,0.3,0.04,0.54,0.12C165.23,147.51,165.47,147.89,165.47,148.37z"/>
	<path class="st2" d="M184.49,148.43c0,0.08-0.04,0.24-0.12,0.48c-1.92,4.24-4.05,7.4-6.39,9.48c-2.34,2.08-5.19,3.12-8.55,3.12
		c-2.2,0-3.96-0.75-5.28-2.25c-1.32-1.5-1.98-3.49-1.98-5.97c0-3.04,0.71-6.13,2.13-9.27c1.42-3.14,3.19-5.74,5.31-7.8
		c2.12-2.06,4.18-3.09,6.18-3.09c1.64,0,2.9,0.51,3.78,1.53c0.88,1.02,1.32,2.39,1.32,4.11c0,1.36-0.28,2.61-0.84,3.75
		c-0.56,1.14-1.18,1.71-1.86,1.71c-0.84,0-1.26-0.4-1.26-1.2c0-0.2,0.15-0.55,0.45-1.05c0.3-0.5,0.54-0.99,0.72-1.47
		c0.18-0.48,0.27-1.06,0.27-1.74c0-1.04-0.21-1.82-0.63-2.34c-0.42-0.52-1.07-0.78-1.95-0.78c-1.52,0-3.15,0.97-4.89,2.91
		c-1.74,1.94-3.21,4.31-4.41,7.11s-1.8,5.36-1.8,7.68c0,1.68,0.44,3.04,1.32,4.08c0.88,1.04,2.04,1.56,3.48,1.56
		c2.8,0,5.19-0.94,7.17-2.82c1.98-1.88,3.77-4.64,5.37-8.28c0.16-0.32,0.4-0.54,0.72-0.66c0.32-0.12,0.64-0.12,0.96,0
		C184.23,147.47,184.49,147.87,184.49,148.43z"/>
	<path class="st2" d="M196.97,148.37c0,0.12-0.04,0.3-0.12,0.54c-1.96,4.2-3.87,7.35-5.73,9.45c-1.86,2.1-4.07,3.15-6.63,3.15
		c-1.4,0-2.49-0.47-3.27-1.41c-0.78-0.94-1.17-2.15-1.17-3.63c0-1.08,0.32-2.78,0.96-5.1c0.64-2.32,1.46-4.74,2.46-7.26l3.06-8.58
		h-3.78c-0.36,0-0.66-0.12-0.9-0.36c-0.24-0.24-0.36-0.54-0.36-0.9c0-0.32,0.12-0.61,0.36-0.87c0.24-0.26,0.54-0.39,0.9-0.39h4.62
		c0.36-0.96,0.89-2.45,1.59-4.47c0.7-2.02,1.21-3.51,1.53-4.47c0.2-0.56,0.6-0.84,1.2-0.84c0.44,0,0.79,0.18,1.05,0.54
		c0.26,0.36,0.31,0.74,0.15,1.14c-0.2,0.64-0.61,1.85-1.23,3.63c-0.62,1.78-1.15,3.27-1.59,4.47h4.02c0.36,0,0.66,0.13,0.9,0.39
		c0.24,0.26,0.36,0.55,0.36,0.87c0,0.36-0.12,0.66-0.36,0.9c-0.24,0.24-0.54,0.36-0.9,0.36h-4.92l-1.44,4.2
		c-0.12,0.28-0.76,2.04-1.92,5.28c-1.24,3.48-2.09,6.04-2.55,7.68c-0.46,1.64-0.69,2.9-0.69,3.78c0,0.8,0.17,1.42,0.51,1.86
		c0.34,0.44,0.81,0.66,1.41,0.66c1.96,0,3.71-0.95,5.25-2.85c1.54-1.9,3.13-4.67,4.77-8.31c0.28-0.48,0.68-0.72,1.2-0.72
		c0.12,0,0.3,0.04,0.54,0.12C196.73,147.51,196.97,147.89,196.97,148.37z"/>
	<path class="st2" d="M211.76,156.47c-0.98,1.6-2.29,2.84-3.93,3.72c-1.64,0.88-3.48,1.32-5.52,1.32c-1.64,0-3.15-0.39-4.53-1.17
		s-2.48-1.84-3.3-3.18c-0.82-1.34-1.23-2.81-1.23-4.41c0.2-2.72,1.02-4.89,2.46-6.51c1.44-1.62,3.34-2.43,5.7-2.43
		c1.56,0,2.89,0.59,3.99,1.77c1.1,1.18,1.69,2.61,1.77,4.29c0,0.36-0.12,0.66-0.36,0.9c-0.24,0.24-0.54,0.36-0.9,0.36
		s-0.66-0.12-0.9-0.36c-0.24-0.24-0.36-0.54-0.36-0.9c-0.04-1-0.38-1.84-1.02-2.52c-0.64-0.68-1.36-1.02-2.16-1.02
		c-1.6,0-2.92,0.6-3.96,1.8c-1.04,1.2-1.62,2.74-1.74,4.62c0,1.8,0.64,3.29,1.92,4.47c1.28,1.18,2.82,1.77,4.62,1.77
		c2.44,0,4.45-0.74,6.03-2.22c1.58-1.48,2.39-3.46,2.43-5.94c-0.04-1.24-0.32-2.47-0.84-3.69c-0.52-1.22-1.62-3.31-3.3-6.27
		c-0.44,0.44-0.84,0.9-1.2,1.38c-0.24,0.32-0.56,0.48-0.96,0.48c-0.4,0-0.7-0.1-0.9-0.3c-0.28-0.24-0.42-0.58-0.42-1.02
		c0-0.24,0.1-0.5,0.3-0.78c0.72-0.84,1.4-1.58,2.04-2.22c-0.6-1.4-0.9-2.72-0.9-3.96c0-1.56,0.43-2.91,1.29-4.05
		c0.86-1.14,1.89-1.71,3.09-1.71c0.84,0,1.51,0.29,2.01,0.87c0.5,0.58,0.79,1.33,0.87,2.25c0,1.12-0.31,2.31-0.93,3.57
		c-0.62,1.26-1.43,2.45-2.43,3.57l1.44,2.64c1.28,2.32,2.15,4.06,2.61,5.22c0.46,1.16,0.71,2.52,0.75,4.08
		C213.25,153.01,212.74,154.87,211.76,156.47z M208.73,134c0.36-0.82,0.54-1.55,0.54-2.19c0-0.4-0.12-0.6-0.36-0.6
		c-0.24,0-0.54,0.18-0.9,0.54c-0.6,0.6-0.9,1.48-0.9,2.64c0,0.56,0.1,1.2,0.3,1.92C207.93,135.59,208.37,134.82,208.73,134z"/>
</g>
<g>
	<path class="st3" d="M39.08,84.46c0.35-0.32,0.75-0.48,1.19-0.48c0.51,0,0.95,0.18,1.33,0.52c0.38,0.35,0.57,0.81,0.57,1.38
		c0,3.74,0.92,6.52,2.76,8.33c1.84,1.81,4.63,2.71,8.38,2.71c2.6,0,5.44-0.68,8.52-2.05c3.08-1.36,5.85-2.86,8.33-4.47
		c2.47-1.62,5.58-3.76,9.33-6.42c1.52-1.2,3.11-2.35,4.76-3.43c0.32-0.19,0.67-0.29,1.05-0.29c0.7,0,1.2,0.25,1.52,0.76
		c0.38,0.57,0.48,1.14,0.29,1.71l-5.52,16.85c4.06-5.2,7.72-9.1,10.99-11.71c3.27-2.6,6.84-3.9,10.71-3.9c4.12,0,7.09,1.03,8.9,3.09
		c1.81,2.06,2.71,5.03,2.71,8.9c0.06,2.92-0.4,6.33-1.38,10.23c-0.98,3.9-2.81,9.76-5.47,17.56c0.19-0.57-1.14,3.24-4,11.42
		c-2.73,7.74-4.73,13.63-6,17.65c-1.27,4.03-1.94,6.74-2,8.14c0,2.92,0.52,5.06,1.57,6.42c1.05,1.36,2.68,2.11,4.9,2.24
		c0.51,0,0.95,0.17,1.33,0.52c0.38,0.35,0.57,0.78,0.57,1.29c0,0.51-0.19,0.95-0.57,1.33c-0.38,0.38-0.83,0.57-1.33,0.57
		c-3.36,0-5.92-1.08-7.66-3.24c-1.75-2.16-2.62-5.2-2.62-9.14c0.06-1.65,0.68-4.38,1.86-8.18c1.17-3.81,2.97-9.14,5.38-15.99
		l4.95-14.28c2.54-7.55,4.3-13.23,5.28-17.04c0.98-3.81,1.48-6.98,1.48-9.52c-0.06-2.6-0.7-4.62-1.9-6.04
		c-1.21-1.43-3.2-2.14-6-2.14c-2.86,0-5.74,1.14-8.66,3.43c-2.92,2.28-5.68,5.08-8.28,8.38c-2.6,3.3-5.52,7.36-8.76,12.18
		c-0.76,2.22-2.16,6.57-4.19,13.04c-2.92,9.01-5.06,15.34-6.42,18.99c-1.37,3.65-2.82,6.31-4.38,7.99
		c-1.56,1.68-3.57,2.52-6.04,2.52c-1.65,0-2.87-0.51-3.66-1.52c-0.79-1.01-1.19-2.44-1.19-4.28c0-2.6,1.08-5.73,3.24-9.37
		c2.16-3.65,4.82-7.72,7.99-12.23l1.43-2l9.8-14.85l7.52-23.03c-5.96,4.25-11.15,7.58-15.56,9.99c-4.41,2.41-8.68,3.62-12.8,3.62
		c-4.32,0-7.88-1.22-10.71-3.66c-2.82-2.44-4.24-5.66-4.24-9.66c0-0.63,0.03-1.14,0.1-1.52C38.52,85.22,38.73,84.77,39.08,84.46z
		 M67.39,127.19c-7.87,10.6-11.87,17.74-11.99,21.41c0,1.27,0.41,1.9,1.24,1.9c1.46,0,2.73-0.67,3.81-2
		c1.08-1.33,2.24-3.71,3.47-7.14c1.24-3.43,3.09-9.1,5.57-17.04C69.36,124.59,68.66,125.54,67.39,127.19z"/>
	<path class="st3" d="M147.06,133.57c0,0.13-0.06,0.38-0.19,0.76c-3.11,6.85-6.52,11.9-10.23,15.13c-3.71,3.24-7.98,4.85-12.8,4.85
		c-3.93,0-7.03-1.19-9.28-3.57c-2.25-2.38-3.31-5.53-3.19-9.47c0.19-4.19,1.33-8.8,3.43-13.85c2.09-5.04,4.77-9.33,8.04-12.85
		c3.27-3.52,6.68-5.28,10.23-5.28c2.41,0,4.36,0.62,5.85,1.86c1.49,1.24,2.24,2.97,2.24,5.19c0,4.57-2.49,8.44-7.47,11.61
		c-4.98,3.17-10.74,5.55-17.27,7.14c-0.7,2.41-1.05,4.66-1.05,6.76c0,2.66,0.78,4.74,2.33,6.23c1.55,1.49,3.76,2.24,6.61,2.24
		c3.81,0,7.25-1.43,10.33-4.28c3.08-2.85,5.92-7.3,8.52-13.32c0.25-0.51,0.63-0.86,1.14-1.05c0.51-0.19,1.01-0.19,1.52,0
		C146.64,132.04,147.06,132.68,147.06,133.57z M131.45,124.52c3.81-2.35,5.71-5.08,5.71-8.19c0-1.14-0.37-1.94-1.09-2.38
		c-0.73-0.44-1.73-0.67-3-0.67c-2.92,0-5.7,1.71-8.33,5.14c-2.63,3.43-4.9,7.46-6.81,12.09
		C123.13,128.87,127.64,126.87,131.45,124.52z"/>
	<path class="st3" d="M196.93,134.23c-1.46,4-3.49,7.33-6.09,9.99c-2.6,2.66-5.49,4-8.66,4c-2.73,0-4.95-0.86-6.66-2.57
		c-2.03,2.86-3.94,5.01-5.71,6.47c-1.78,1.46-3.71,2.19-5.81,2.19c-3.94,0-6.22-2.25-6.85-6.76c-3.17,4.51-6.66,6.76-10.47,6.76
		c-2.22,0-3.92-0.73-5.09-2.19c-1.17-1.46-1.76-3.39-1.76-5.81c0-2.28,0.83-6.01,2.47-11.18c1.65-5.17,4.63-13.43,8.95-24.79
		c0.13-0.38,0.36-0.68,0.71-0.9c0.35-0.22,0.71-0.33,1.09-0.33c0.76,0,1.33,0.29,1.71,0.86c0.38,0.57,0.44,1.17,0.19,1.81
		c-4.89,13.45-7.96,22.13-9.23,26.03c-1.27,3.9-1.9,6.74-1.9,8.52c0,1.4,0.22,2.41,0.67,3.05c0.44,0.63,1.17,0.95,2.19,0.95
		c2.28,0,4.5-1.36,6.66-4.09c2.16-2.73,4.5-7.26,7.04-13.61c1.08-2.79,3.77-10.21,8.09-22.27c0.13-0.38,0.36-0.68,0.71-0.9
		c0.35-0.22,0.71-0.33,1.09-0.33c0.76,0,1.35,0.29,1.76,0.86c0.41,0.57,0.49,1.17,0.24,1.81c-3.74,9.84-6.54,17.51-8.38,23.03
		c-1.84,5.52-2.76,9.36-2.76,11.52c0,1.46,0.24,2.49,0.71,3.09c0.48,0.6,1.19,0.9,2.14,0.9c1.46,0,2.74-0.55,3.85-1.67
		c1.11-1.11,2.84-3.31,5.19-6.61c-0.51-1.52-0.76-3.01-0.76-4.47c0-1.52,0.22-3.05,0.67-4.57c0.32-1.01,0.95-1.52,1.9-1.52
		c0.7,0,1.25,0.27,1.67,0.81c0.41,0.54,0.52,1.13,0.33,1.76c-0.19,0.44-0.35,1.21-0.48,2.28c1.9-3.68,4.11-7.96,6.61-12.85
		c2.51-4.89,4.71-9.33,6.61-13.32c0.44-0.76,1.08-1.14,1.9-1.14c0.51,0,0.95,0.21,1.33,0.62c0.38,0.41,0.57,0.87,0.57,1.38
		c0,0.25-0.06,0.57-0.19,0.95c-2.47,5.01-5.3,10.64-8.47,16.89c-3.17,6.25-5.52,10.71-7.04,13.37c0.44,0.64,1.08,1.13,1.9,1.48
		c0.82,0.35,1.68,0.52,2.57,0.52c2.35,0,4.36-0.95,6.04-2.86c1.68-1.9,3.35-4.79,5-8.66c0.44-0.82,1.05-1.24,1.81-1.24
		c0.57,0,1.06,0.19,1.48,0.57c0.41,0.38,0.62,0.86,0.62,1.43C197.12,133.6,197.05,133.85,196.93,134.23z"/>
</g>
</svg>
